# xmcd CD database file
#
# Track frame offsets:
#	150
#	13924
#	32327
#	53063
#	71672
#	88280
#	108750
#	127531
#	150309
#	171939
#	188003
#	205395
#	227250
#	252297
#	271758
#	290441
#	309348
#
# Disc length: 4339 seconds
#
# Revision: 0
# Processed by: cddbd v1.5.1PL0 Copyright (c) Steve Scherf et al.
# Submitted via: Feurio! 1.67 - http://www.feurio.com
#
DISCID=d310f111
DTITLE=Various Artist - SLOW MOTION
DYEAR=1900
DGENRE=
TTITLE0=MAX - CANT WAIT UNTIL TONIGHT  (RADI
TTITLE1=ELLI - THIS IS MY LIFE
TTITLE2=BLUE - BREATHE EASY
TTITLE3=Chris Norman - for you (radio edit)
TTITLE4=BLUE FT. ELTON JOHN - SORRY SEEMS TO ...
TTITLE5=BOYZONE - NO MATTER WHAT
TTITLE6=CELINE DION - THINK TWICE
TTITLE7=ELTON JOHN - SACRIFICE
TTITLE8=CELINE DION and R. KELLY - I'M YOUR ANGEL
TTITLE9=RONAN KEATING - IF TOMORROW NEVER COMES
TTITLE10=L. RICHIE - E. IGLESIAS - TO LOVE A WOMAN
TTITLE11=BRYAN ADAMS - HAVE YOU EVER REALLY ...
TTITLE12=XAVIER NAIDOO FEAT. RZA - ICH KENNE NICHTS
TTITLE13=NORMAN and DE ANGELO - ICH MACH MEINE...
TTITLE14=STEFAN_REMMLER - VOGEL_DER_NACHT
TTITLE15=SARAH CONNOR - LAST CHANCE FOR DANCE
TTITLE16=Westlife - Mandy
EXTD=
EXTT0=
EXTT1=
EXTT2=
EXTT3=
EXTT4=
EXTT5=
EXTT6=
EXTT7=
EXTT8=
EXTT9=
EXTT10=
EXTT11=
EXTT12=
EXTT13=
EXTT14=
EXTT15=
EXTT16=00000F9C 00000F95 00002FD7 00003796 00027145 00027145 00008000 00008000 
EXTT16=0001ADDE 000222E0
PLAYORDER=
